# xmcd CD database file generated by Grip 2.99.0
# 
# Track frame offsets:
#       151
#       14179
#       28686
#       38476
#       51751
#       64806
#       74033
#       85156
#       89516
#       96401
#       107811
#       111511
#       118114
#       130181
#       136079
#       149332
#       165457
#       174509
#       189999
#       204812
#       215950
#       226548
# 
# Disc length: 3155 seconds
# 
# Revision: 1
# Processed by: cddbd v1.4PL0 Copyright (c) Steve Scherf et al.
# Submitted via: Grip 2.99.0
# 
DISCID=400c5116
DTITLE=Various Artist - Celtic - The heart of Ireland
DYEAR=1900
DGENRE=Country
TTITLE0=Galway Bay
TTITLE1=Forty shades of green
TTITLE2=The bard of armagh
TTITLE3=Moonlight in Mayo
TTITLE4=Country Medley
TTITLE5=Danny Boy
TTITLE6=The rose of tralee
TTITLE7=Green gravel green gravel
TTITLE8=Maid of Ballydoo
TTITLE9=Calabar
TTITLE10=As I walked out
TTITLE11=A maid again I shall never be
TTITLE12=An Irish girl I spy
TTITLE13=Mistress
TTITLE14=Whissky in the jar
TTITLE15=Roisin the bow
TTITLE16=Star of country down
TTITLE17=Carrickfergus
TTITLE18=Black velvet band
TTITLE19=Blues and royals
TTITLE20=Sally go
TTITLE21=Three grey geese
EXTD=
EXTT0=
EXTT1=
EXTT2=
EXTT3=
EXTT4=
EXTT5=
EXTT6=
EXTT7=
EXTT8=
EXTT9=
EXTT10=
EXTT11=
EXTT12=
EXTT13=
EXTT14=
EXTT15=
EXTT16=
EXTT17=
EXTT18=
EXTT19=
EXTT20=
EXTT21=
PLAYORDER=
